<?xml version="1.0" encoding="UTF-8" standalone="no"?>
<!-- Created with Inkscape (http://www.inkscape.org/) -->

<svg
   xmlns:dc="http://purl.org/dc/elements/1.1/"
   xmlns:cc="http://creativecommons.org/ns#"
   xmlns:rdf="http://www.w3.org/1999/02/22-rdf-syntax-ns#"
   xmlns:svg="http://www.w3.org/2000/svg"
   xmlns="http://www.w3.org/2000/svg"
   xmlns:sodipodi="http://sodipodi.sourceforge.net/DTD/sodipodi-0.dtd"
   xmlns:inkscape="http://www.inkscape.org/namespaces/inkscape"
   width="1cm"
   height="1cm"
   viewBox="0 0 9.9999997 9.9999997"
   version="1.1"
   id="svg8"
   inkscape:version="0.92.2 2405546, 2018-03-11"
   sodipodi:docname="gold_block.svg">
  <defs
     id="defs2" />
  <sodipodi:namedview
     id="base"
     pagecolor="#ffffff"
     bordercolor="#666666"
     borderopacity="1.0"
     inkscape:pageopacity="0"
     inkscape:pageshadow="2"
     inkscape:zoom="15.839192"
     inkscape:cx="5.6789923"
     inkscape:cy="15.82504"
     inkscape:document-units="mm"
     inkscape:current-layer="layer1"
     showgrid="false"
     units="cm"
     inkscape:pagecheckerboard="false"
     inkscape:window-width="1920"
     inkscape:window-height="1016"
     inkscape:window-x="1920"
     inkscape:window-y="27"
     inkscape:window-maximized="1" />
  <metadata
     id="metadata5">
    <rdf:RDF>
      <cc:Work
         rdf:about="">
        <dc:format>image/svg+xml</dc:format>
        <dc:type
           rdf:resource="http://purl.org/dc/dcmitype/StillImage" />
        <dc:title></dc:title>
      </cc:Work>
    </rdf:RDF>
  </metadata>
  <g
     inkscape:label="Layer 1"
     inkscape:groupmode="layer"
     id="layer1"
     transform="translate(0,-287)">
    <path
       style="fill:#784421;fill-rule:evenodd;stroke:#784421;stroke-width:0.26458332px;stroke-linecap:butt;stroke-linejoin:miter;stroke-opacity:1"
       d="m 0.01670434,287.06091 9.98919866,-0.0334 0.05011,9.95579 -10.00590296,0.0334 z"
       id="path5077"
       inkscape:connector-curvature="0" />
    <path
       style="fill:#d38d5f;fill-rule:evenodd;stroke:#d38d5f;stroke-width:0.26458332px;stroke-linecap:butt;stroke-linejoin:miter;stroke-opacity:1"
       d="m 0.83521726,288.46408 c -0.2211063,0.10886 -0.3850663,0.22 0.36749564,0.3675 0.1425971,0.46 0.3873088,-0.49207 0.1503391,-0.45102 -0.1825118,-0.28402 -0.3508083,-0.12025 -0.51783474,0.0835 z"
       id="path5079"
       inkscape:connector-curvature="0"
       sodipodi:nodetypes="cccc" />
    <path
       style="fill:#d38d5f;fill-rule:evenodd;stroke:#d38d5f;stroke-width:0.26458332px;stroke-linecap:butt;stroke-linejoin:miter;stroke-opacity:1"
       d="m 1.3480919,290.48343 c -0.2211063,0.10886 0.2644804,-0.079 0.3674956,0.3675 0.052855,0.18329 0.3869044,-0.49332 0.1503391,-0.45102 -0.1965635,0.004 -0.351073,-0.11482 -0.5178347,0.0835 z"
       id="path5079-3"
       inkscape:connector-curvature="0"
       sodipodi:nodetypes="ccccc" />
    <path
       style="fill:#d38d5f;fill-rule:evenodd;stroke:#d38d5f;stroke-width:0.31342915px;stroke-linecap:butt;stroke-linejoin:miter;stroke-opacity:1"
       d="m 5.8721075,291.2242 c -0.2576456,0.13112 0.358826,0.89288 0.4283919,0.44241 0.1652037,0.55405 0.2966239,-0.54938 0.1752513,-0.54295 -0.3176967,0.19221 -0.4706355,-0.13458 -0.6036432,0.10052 z"
       id="path5079-7"
       inkscape:connector-curvature="0"
       sodipodi:nodetypes="ccccc" />
    <path
       style="fill:#d38d5f;fill-rule:evenodd;stroke:#d38d5f;stroke-width:0.20977226px;stroke-linecap:butt;stroke-linejoin:miter;stroke-opacity:1"
       d="m 8.953662,291.0887 c -0.1235967,-0.0279 -0.2774944,0.0869 0.3065049,0.27698 0.1478278,0.13126 0.3465584,-0.54628 0.1253883,-0.33993 -0.4957221,0.0522 -0.1121084,-0.01 -0.4318932,0.0629 z"
       id="path5079-5"
       inkscape:connector-curvature="0"
       sodipodi:nodetypes="ccccc" />
    <path
       style="fill:#d38d5f;fill-rule:evenodd;stroke:#d38d5f;stroke-width:0.26458332px;stroke-linecap:butt;stroke-linejoin:miter;stroke-opacity:1"
       d="m 4.2091386,288.05589 c -0.10886,-0.22111 -0.22,-0.38507 -0.3675,0.3675 -0.46,0.14259 0.49207,0.3873 0.45102,0.15033 0.28402,-0.18251 0.12025,-0.3508 -0.0835,-0.51783 z"
       id="path5079-35"
       inkscape:connector-curvature="0"
       sodipodi:nodetypes="cccc" />
    <path
       style="fill:#d38d5f;fill-rule:evenodd;stroke:#d38d5f;stroke-width:0.26458332px;stroke-linecap:butt;stroke-linejoin:miter;stroke-opacity:1"
       d="m 7.2305768,288.17755 c -0.10886,-0.2211 0.079,0.26448 -0.3675,0.3675 -0.18329,0.0528 0.49332,0.3869 0.45102,0.15034 -0.004,-0.19657 0.11482,-0.35108 -0.0835,-0.51784 z"
       id="path5079-3-6"
       inkscape:connector-curvature="0"
       sodipodi:nodetypes="ccccc" />
    <path
       style="fill:#d38d5f;fill-rule:evenodd;stroke:#d38d5f;stroke-width:0.26458332px;stroke-linecap:butt;stroke-linejoin:miter;stroke-opacity:1"
       d="m 3.7980455,292.15201 c -0.10892,-0.22102 -0.7417,0.30782 -0.3675,0.3675 -0.46024,0.14172 0.45636,0.25446 0.45102,0.15034 -0.15967,-0.27254 0.11179,-0.40374 -0.0835,-0.51784 z"
       id="path5079-7-2"
       inkscape:connector-curvature="0"
       sodipodi:nodetypes="ccccc" />
    <path
       style="fill:#d38d5f;fill-rule:evenodd;stroke:#d38d5f;stroke-width:0.26458332px;stroke-linecap:butt;stroke-linejoin:miter;stroke-opacity:1"
       d="m 9.2690219,295.68418 c 0.037,-0.14819 -0.11529,-0.33271 -0.3675,0.3675 -0.17416,0.17724 0.72481,0.41552 0.45102,0.15034 -0.0692,-0.59437 0.013,-0.13442 -0.0835,-0.51784 z"
       id="path5079-5-9"
       inkscape:connector-curvature="0"
       sodipodi:nodetypes="ccccc" />
    <path
       style="fill:#d38d5f;fill-rule:evenodd;stroke:#d38d5f;stroke-width:0.21294324px;stroke-linecap:butt;stroke-linejoin:miter;stroke-opacity:1"
       d="m 1.8565097,294.09305 c 0.086603,0.18002 0.1750189,0.31352 0.2923611,-0.29923 0.3659486,-0.1161 -0.3914616,-0.31535 -0.3588046,-0.12241 -0.2259494,0.14861 -0.095664,0.28564 0.066428,0.42164 z"
       id="path5079-1"
       inkscape:connector-curvature="0"
       sodipodi:nodetypes="cccc" />
    <path
       style="fill:#d38d5f;fill-rule:evenodd;stroke:#d38d5f;stroke-width:0.26458332px;stroke-linecap:butt;stroke-linejoin:miter;stroke-opacity:1"
       d="m 8.6338566,294.00069 c 0.10886,0.2211 -0.079,-0.26448 0.3675,-0.3675 0.18329,-0.0529 -0.49332,-0.3869 -0.45102,-0.15034 0.004,0.19657 -0.11482,0.35108 0.0835,0.51784 z"
       id="path5079-3-2"
       inkscape:connector-curvature="0"
       sodipodi:nodetypes="ccccc" />
    <path
       style="fill:#d38d5f;fill-rule:evenodd;stroke:#d38d5f;stroke-width:0.26458332px;stroke-linecap:butt;stroke-linejoin:miter;stroke-opacity:1"
       d="m 4.6208952,296.26491 c 0.10892,0.22102 0.7417,-0.30782 0.3675,-0.3675 0.46024,-0.14172 -0.45636,-0.25446 -0.45102,-0.15034 0.15967,0.27254 -0.11179,0.40374 0.0835,0.51784 z"
       id="path5079-7-7"
       inkscape:connector-curvature="0"
       sodipodi:nodetypes="ccccc" />
    <path
       style="fill:#d38d5f;fill-rule:evenodd;stroke:#d38d5f;stroke-width:0.20160796px;stroke-linecap:butt;stroke-linejoin:miter;stroke-opacity:1"
       d="m 6.9555169,295.01856 c -0.026102,0.12196 0.081332,0.27383 0.2592535,-0.30247 0.1228614,-0.14588 -0.5113183,-0.34199 -0.3181728,-0.12374 0.048817,0.4892 -0.00917,0.11064 0.058905,0.42621 z"
       id="path5079-5-0"
       inkscape:connector-curvature="0"
       sodipodi:nodetypes="ccccc" />
    <path
       style="fill:#d38d5f;fill-rule:evenodd;stroke:#d38d5f;stroke-width:0.20053792px;stroke-linecap:butt;stroke-linejoin:miter;stroke-opacity:1"
       d="m 1.1621568,296.10961 c -0.090561,-0.15268 0.065721,0.18264 -0.30572515,0.25378 -0.15247993,0.0365 0.41039555,0.26717 0.37520595,0.10382 -0.00333,-0.13574 0.095519,-0.24244 -0.069464,-0.3576 z"
       id="path5079-3-6-9"
       inkscape:connector-curvature="0"
       sodipodi:nodetypes="ccccc" />
    <path
       style="fill:#d38d5f;fill-rule:evenodd;stroke:#d38d5f;stroke-width:0.20160796px;stroke-linecap:butt;stroke-linejoin:miter;stroke-opacity:1"
       d="m 8.8810372,288.22021 c -0.026102,0.12196 0.081332,0.27383 0.2592535,-0.30247 0.1228614,-0.14588 -0.5113183,-0.34199 -0.3181728,-0.12374 0.048817,0.4892 -0.00917,0.11064 0.058905,0.42621 z"
       id="path5079-5-0-3"
       inkscape:connector-curvature="0"
       sodipodi:nodetypes="ccccc" />
    <path
       style="fill:#666666;stroke:#c87137;stroke-width:0.01;stroke-linecap:butt;stroke-linejoin:miter;stroke-miterlimit:4;stroke-dasharray:none;stroke-opacity:1"
       d="m 1.7434094,289.47931 c -0.5938967,0.0926 -0.5257991,-0.20091 -0.6180608,-0.4009 0.031606,-0.21789 -0.92297588,-0.84645 0.3006782,-0.56795 l 0.968852,0.20046 c 0.8029565,0.0928 1.5558074,0.5112 2.4388343,0.0835 H 8.35833 c 0.3357056,0.18334 0.1141761,0.506 0.1336347,0.7684 l -0.083521,0.33407 -0.3340872,0.0835 -2.7562169,0.26726 -1.8040694,0.20046 -1.3029389,0.61806 c 0.05916,0.28519 0.1970289,0.472 0.4343131,0.53454 0.077473,0.38255 0.3995685,0.37371 0.6910327,0.41388 0.4833928,-0.4992 0.6877535,-0.27291 0.9626973,-0.23014 1.609104,0.51044 1.9819279,0.19791 2.9733734,0.28398 l 1.0523739,-0.0668 0.3841998,0.61806 -0.2528533,0.35826 -1.3173551,0.59389 c 0,0 -3.6081384,0.35079 -3.6749558,0.51783 0.4674533,0.32419 -0.9670174,0.95662 -1.1525999,0.90204 0.5193443,0.0894 1.0527155,0.12965 1.4866866,0.51783 0.754548,-0.12195 1.4777565,-0.49461 2.2717911,-0.30067 0.2831502,-0.0281 0.4517167,0.0393 0.4677217,0.23386 -0.00772,0.22829 0.1314618,0.45658 -0.1169305,0.68487 -0.3085673,0.31643 -0.6502445,0.78978 -1.0022606,0.15034 -1.5931609,0.35185 -1.6846793,-0.15996 -2.5390604,-0.16704 L 1.292392,295.27571 c -0.1485591,-0.23587 -0.68370621,-0.34704 0.4677217,-1.00226 0.1764511,-0.30165 0.3560546,-0.6025 1.069078,-0.7684 0.942359,-0.16007 1.3679276,-0.14787 1.9377041,-0.18374 l 1.1693043,-0.3842 1.6203213,-0.23387 c -0.4454492,-0.0378 -0.8908983,0.14712 -1.3363475,-0.16704 -0.4572368,0.14492 -0.9453785,0.42891 -1.3196432,0.20045 l -1.0189652,-0.0668 -1.5702084,0.21715 c -0.070206,-0.18157 -0.3337354,0.18461 -0.1670435,-0.66817 -0.3992432,-0.13139 -0.911049,-0.0377 -0.8018085,-1.18601 0.4063308,-0.31188 0.2658322,-0.89718 1.2194172,-0.93544 l 0.7349911,-0.15034 1.4365737,-0.18375 0.7516955,-0.11693 1.1358957,0.10023 c -0.1038306,-0.0724 0.00999,-0.19505 0.4844259,-0.40091 -0.8863262,-0.033 -2.287995,0.39554 -2.605878,0.10023 -0.1238822,0.43248 -0.5093277,0.10063 -0.7516953,0.21715 l -0.8519216,0.0167 z"
       id="path22"
       inkscape:connector-curvature="0"
       sodipodi:nodetypes="cccccccccccccccccccccccccccccccccccccccccccccccccc" />
    <path
       style="fill:#aa4400;stroke:#803300;stroke-width:0.01527423;stroke-linecap:butt;stroke-linejoin:miter;stroke-miterlimit:4;stroke-dasharray:none;stroke-opacity:1"
       d="m 1.724844,288.94702 0.6700348,-0.2361 0.074448,0.3935 -0.4218737,0.41973 0.099264,-0.26234 -0.3226093,-0.18363 z"
       id="path831"
       inkscape:connector-curvature="0" />
    <path
       style="fill:#aa4400;stroke:#803300;stroke-width:0.01527423;stroke-linecap:butt;stroke-linejoin:miter;stroke-miterlimit:4;stroke-dasharray:none;stroke-opacity:1"
       d="m 7.1055042,289.34568 0.6700348,-0.2361 0.074448,0.3935 -0.4218737,0.41973 0.099264,-0.26234 -0.3226093,-0.18363 z"
       id="path831-3"
       inkscape:connector-curvature="0" />
    <path
       style="fill:#aa4400;stroke:#803300;stroke-width:0.01527423;stroke-linecap:butt;stroke-linejoin:miter;stroke-miterlimit:4;stroke-dasharray:none;stroke-opacity:1"
       d="m 1.7892582,290.75138 0.6700348,-0.2361 0.074448,0.3935 -0.4218737,0.41973 0.099264,-0.26234 -0.3226093,-0.18363 z"
       id="path831-7"
       inkscape:connector-curvature="0" />
    <path
       style="fill:#aa4400;stroke:#803300;stroke-width:0.01527423;stroke-linecap:butt;stroke-linejoin:miter;stroke-miterlimit:4;stroke-dasharray:none;stroke-opacity:1"
       d="m 2.1443136,292.21883 0.6700348,-0.2361 0.074448,0.3935 -0.4218737,0.41973 0.099264,-0.26234 -0.3226093,-0.18363 z"
       id="path831-5"
       inkscape:connector-curvature="0" />
    <path
       style="fill:#aa4400;stroke:#803300;stroke-width:0.01527423;stroke-linecap:butt;stroke-linejoin:miter;stroke-miterlimit:4;stroke-dasharray:none;stroke-opacity:1"
       d="m 7.4572576,292.57208 0.6700348,-0.2361 0.074448,0.3935 -0.4218737,0.41973 0.099264,-0.26234 -0.3226093,-0.18363 z"
       id="path831-35"
       inkscape:connector-curvature="0" />
    <path
       style="fill:#aa4400;stroke:#803300;stroke-width:0.01527423;stroke-linecap:butt;stroke-linejoin:miter;stroke-miterlimit:4;stroke-dasharray:none;stroke-opacity:1"
       d="m 1.9887483,294.41458 0.6700348,-0.2361 0.074448,0.3935 -0.4218737,0.41973 0.099264,-0.26234 -0.3226093,-0.18363 z"
       id="path831-6"
       inkscape:connector-curvature="0" />
    <path
       style="fill:#aa4400;stroke:#803300;stroke-width:0.01527423;stroke-linecap:butt;stroke-linejoin:miter;stroke-miterlimit:4;stroke-dasharray:none;stroke-opacity:1"
       d="m 5.0957566,295.70081 0.6700348,-0.2361 0.074448,0.3935 -0.4218737,0.41973 0.099264,-0.26234 -0.3226093,-0.18363 z"
       id="path831-2"
       inkscape:connector-curvature="0" />
    <path
       style="fill:#aa4400;stroke:#803300;stroke-width:0.01527423;stroke-linecap:butt;stroke-linejoin:miter;stroke-miterlimit:4;stroke-dasharray:none;stroke-opacity:1"
       d="m 2.5566962,295.53377 0.6700348,-0.2361 0.074448,0.3935 -0.4218737,0.41973 0.099264,-0.26234 -0.3226093,-0.18363 z"
       id="path831-9"
       inkscape:connector-curvature="0" />
  </g>
</svg>
